<svg width="60" height="60" viewBox="0 0 60 60" fill="none" xmlns="http://www.w3.org/2000/svg">
<g clip-path="url(#clip0_4_11)">
<path d="M10.625 0H49.375C55.25 0 60 4.8718 60 10.8974V49.1026C60 55.1283 55.25 60 49.375 60H10.625C4.75 60 0 55.1283 0 49.1026V10.8974C0 4.8718 4.75 0 10.625 0Z" fill="#330000"/>
<path fill-rule="evenodd" clip-rule="evenodd" d="M21.3311 37.6281H30.7005L32.7659 43.3195C32.8163 43.4868 32.9925 43.6063 33.1689 43.5825H38.4329C38.6846 43.5825 38.7603 43.4628 38.6846 43.1998L29.4916 18.5695C29.4664 18.4498 29.3656 18.3781 29.1641 18.3781H22.7164H22.6409C22.5149 18.402 22.4141 18.5216 22.4394 18.6411C22.4394 19.1672 22.389 19.6933 22.2883 20.1955C22.2169 20.3988 22.1581 20.5901 22.1031 20.7695C22.0804 20.8432 22.0584 20.915 22.0364 20.9846L13.9262 43.152C13.8507 43.439 13.9262 43.5825 14.2034 43.5825H18.9384C19.1651 43.6063 19.3666 43.4628 19.417 43.2477L21.3311 37.6281ZM29.1894 32.7737H22.792C23.1698 31.7695 23.5475 30.6455 23.9001 29.426C24.1496 28.6857 24.3895 27.9455 24.6256 27.2166C24.771 26.7682 24.9149 26.324 25.0588 25.8868C25.4114 24.8586 25.6884 23.8303 25.9151 22.802H25.9655C26.0638 23.122 26.162 23.4567 26.2646 23.8065C26.3461 24.084 26.4304 24.371 26.5196 24.6672C26.7211 25.3607 26.9478 26.0542 27.1996 26.7955C27.3255 27.1661 27.4451 27.5308 27.5649 27.8955C27.6845 28.2602 27.8041 28.6248 27.93 28.9955C28.1568 29.7128 28.3834 30.4063 28.61 31.052C28.8368 31.6737 29.0382 32.2716 29.1894 32.7737ZM41.9338 21.6303C42.5383 22.1803 43.3441 22.4912 44.1754 22.4673C45.0316 22.5151 45.888 22.2042 46.4674 21.6303C47.0718 21.0325 47.374 20.2433 47.3489 19.4303C47.374 18.6412 47.0718 17.876 46.5178 17.3021C45.9636 16.7521 45.208 16.4651 44.2258 16.4651C43.3945 16.4651 42.5886 16.7521 41.9841 17.3021C41.3796 17.8521 41.0523 18.6173 41.0774 19.4303C41.0523 20.2433 41.3545 21.0325 41.9338 21.6303ZM41.3545 24.8107V43.2238C41.3545 43.463 41.4804 43.6065 41.7323 43.6065H46.6688C46.8955 43.6065 46.9963 43.4868 46.9963 43.2238V24.8107C46.9963 24.5956 46.8955 24.476 46.6688 24.476H41.6819C41.4553 24.476 41.3545 24.5716 41.3545 24.8107Z" fill="#FF9A00"/>
</g>
<defs>
<clipPath id="clip0_4_11">
<rect width="60" height="60" fill="white"/>
</clipPath>
</defs>
</svg>
