<svg width="60" height="60" viewBox="0 0 60 60" fill="none" xmlns="http://www.w3.org/2000/svg">
<path d="M8.36213 54.0022L3.54749 0H56.4525L51.6327 53.9937L29.9676 60L8.36213 54.0022Z" fill="#264DE4"/>
<path d="M47.5064 50.5555L51.6253 4.41528H30V55.409L47.5064 50.5555Z" fill="#2965F1"/>
<path d="M14.5852 24.4442L15.1787 31.0673H30V24.4442H14.5852ZM13.9944 17.662H30V11.0388H13.3923L13.9944 17.662ZM30 41.6453L29.9709 41.653L22.5947 39.6613L22.1232 34.3789H15.4745L16.4025 44.7783L29.9695 48.5447L30 48.5361V41.6453Z" fill="#EBEBEB"/>
<path d="M29.9771 24.4442V31.0673H38.1328L37.3641 39.6571L29.9771 41.6508V48.5414L43.555 44.7783L43.6546 43.6593L45.2108 26.2227L45.3725 24.4442L46.5682 11.0388H29.9771V17.662H39.3098L38.707 24.4442H29.9771Z" fill="white"/>
</svg>
