<svg width="60" height="60" viewBox="0 0 60 60" fill="none" xmlns="http://www.w3.org/2000/svg">
<g clip-path="url(#clip0_4_18)">
<path d="M57 0H30V60H3H57C58.66 60 60 58.66 60 57V3C60 1.34 58.66 0 57 0Z" fill="url(#paint0_linear_4_18)"/>
<path d="M30 0H3C1.34 0 0 1.34 0 3V57C0 58.66 1.34 60 3 60H30V0Z" fill="url(#paint1_linear_4_18)"/>
<path d="M22.0075 43.3275H16.675V16.6725H22.0075V43.3275Z" fill="white"/>
<path d="M19.34 16.6725H16.675V43.3275H19.34V16.6725Z" fill="#DEDEDE"/>
<path d="M43.34 43.3275H27.3325V37.995H43.34V43.3275Z" fill="white"/>
<path d="M43.34 32.6675H27.3325V27.3325H43.34V32.6675Z" fill="white"/>
<path d="M43.34 21.9925H27.3325V16.66H43.34V21.9925Z" fill="white"/>
<path d="M35.3375 37.995H27.3325V43.3275H35.3375V37.995Z" fill="#DEDEDE"/>
<path d="M35.3375 27.3325H27.3325V32.6675H35.3375V27.3325Z" fill="#DEDEDE"/>
<path d="M35.3375 16.66H27.3325V21.9925H35.3375V16.66Z" fill="#DEDEDE"/>
</g>
<defs>
<linearGradient id="paint0_linear_4_18" x1="10.1531" y1="63.9795" x2="62.2633" y2="11.8693" gradientUnits="userSpaceOnUse">
<stop stop-color="#312878"/>
<stop offset="1" stop-color="#E02C5D"/>
</linearGradient>
<linearGradient id="paint1_linear_4_18" x1="-3.96877" y1="49.8577" x2="48.1415" y2="-2.25257" gradientUnits="userSpaceOnUse">
<stop stop-color="#2B2368"/>
<stop offset="1" stop-color="#C32651"/>
</linearGradient>
<clipPath id="clip0_4_18">
<rect width="60" height="60" fill="white"/>
</clipPath>
</defs>
</svg>
