<svg width="63" height="60" viewBox="0 0 63 60" fill="none" xmlns="http://www.w3.org/2000/svg">
<path d="M51.2069 0H10.8621C4.86311 0 0 4.86311 0 10.8621V49.1379C0 55.1369 4.86311 60 10.8621 60H51.2069C57.2058 60 62.069 55.1369 62.069 49.1379V10.8621C62.069 4.86311 57.2058 0 51.2069 0Z" fill="#001E36"/>
<path d="M12.931 44.1931V16.0345C12.9259 15.9952 12.9299 15.9553 12.9427 15.9179C12.9554 15.8804 12.9766 15.8464 13.0046 15.8184C13.0326 15.7904 13.0666 15.7692 13.104 15.7565C13.1415 15.7437 13.1814 15.7397 13.2206 15.7448C15.318 15.6905 17.793 15.5172 21.0206 15.5172C24.8275 15.5172 27.6206 16.3112 29.3999 18.0207C30.2643 18.8294 30.9487 19.8112 31.4086 20.902C31.8684 21.9928 32.0934 23.1682 32.0689 24.3517C32.0689 27.4707 30.9655 29.7879 28.7586 31.3034C26.5517 32.8189 23.7758 33.5776 20.431 33.5793L18.1034 33.6207V44.1517C18.1099 44.1967 18.1058 44.2426 18.0915 44.2857C18.0771 44.3288 18.0529 44.368 18.0208 44.4001C17.9887 44.4323 17.9495 44.4565 17.9063 44.4708C17.8632 44.4852 17.8173 44.4892 17.7723 44.4827H13.262C13.0422 44.4827 12.931 44.387 12.931 44.1931ZM18.1034 19.5569V29.7414C18.1034 29.7414 19.2827 29.6948 20.6896 29.6948C22.5396 29.6948 24.0361 29.2879 25.1792 28.4741C26.3223 27.6603 26.8948 26.3276 26.8965 24.4758C26.8965 22.8482 26.393 21.5931 25.3861 20.7103C24.3792 19.8276 22.9241 19.3896 21.0206 19.3965C20.5525 19.3965 20.0896 19.3965 19.6344 19.4172C19.1792 19.4379 18.8068 19.4379 18.5172 19.4379C18.2275 19.4379 18.0723 19.4276 18.1034 19.5569ZM49.1379 37.7586C49.1379 40.9267 47.0689 42.4138 47.0689 42.4138V42.3982C46.9448 42.5198 46.8103 42.6336 46.6784 42.7448C45.2542 43.9034 43.3292 44.4827 40.9034 44.4827C38.4775 44.4827 36.4948 44.0362 34.9551 43.1431C34.87 43.1135 34.7977 43.0553 34.7506 42.9785C34.7034 42.9016 34.6843 42.8108 34.6965 42.7215V38.8241C34.6926 38.7801 34.7001 38.7358 34.7182 38.6955C34.7363 38.6553 34.7645 38.6203 34.7999 38.5939C34.828 38.5737 34.8626 38.5646 34.897 38.5684C34.9314 38.5722 34.9632 38.5887 34.9861 38.6146C36.6274 39.9043 38.6506 40.612 40.7379 40.6267C41.7017 40.6267 42.4396 40.4543 42.9517 40.1095C43.1877 39.9687 43.3833 39.7691 43.5193 39.5303C43.6552 39.2914 43.727 39.0214 43.7275 38.7465C43.7331 38.4691 43.6807 38.1936 43.5739 37.9376C43.467 37.6816 43.3079 37.4506 43.1068 37.2595C42.693 36.8526 41.8792 36.412 40.6655 35.9379C38.4568 35.0758 36.9189 34.1465 36.0517 33.15C35.1338 32.1515 34.6339 30.8389 34.6551 29.4827C34.6556 28.6391 34.8369 27.8053 35.1866 27.0376C35.5363 26.2698 36.0465 25.5859 36.6827 25.0319C37.9775 23.8577 39.8258 23.2707 42.2275 23.2707C44.4689 23.2707 46.193 23.5784 47.3999 24.1939C47.537 24.2767 47.6068 24.4526 47.6068 24.737V28.2155C47.6068 28.5517 47.4827 28.6345 47.2344 28.4741C45.7957 27.5289 44.1144 27.0197 42.393 27.0077C41.4258 27.0077 40.7172 27.1914 40.262 27.5534C40.0549 27.7004 39.8852 27.894 39.7666 28.1186C39.648 28.3432 39.5838 28.5926 39.5792 28.8465C39.5785 29.095 39.6296 29.3409 39.7294 29.5685C39.8291 29.796 39.9753 30.0003 40.1586 30.1681C40.5448 30.5457 41.3586 30.9853 42.5999 31.487C44.7655 32.3336 46.3172 33.2232 47.2551 34.156L47.2784 34.1793C48.243 35.0664 49.1379 36.287 49.1379 37.7586Z" fill="#31A8FF"/>
</svg>
