<svg width="111" height="60" viewBox="0 0 111 60" fill="none" xmlns="http://www.w3.org/2000/svg">
<g clip-path="url(#clip0_2219_2879)">
<path d="M28.2513 36.7264C18.3033 42.2466 9.18352 48.9474 0.0939082 56.4839C0.0939082 55.2253 -0.137674 54.2411 0.134183 53.4255C1.26189 50.055 2.48021 46.7146 3.77657 43.4045C8.49129 31.3597 13.2463 19.3325 17.9962 7.30283C18.3638 6.36895 18.7715 5.44513 19.2498 4.56411C21.8375 -0.195915 27.8335 -1.51241 31.8685 1.95126C33.0869 2.99841 34.0811 4.51629 34.7054 6.01402C37.9576 13.8148 41.0588 21.6811 44.2104 29.5247C44.2557 29.6354 44.2657 29.7613 44.2985 29.9023C40.9984 31.0979 37.7084 32.2886 34.2523 33.5396C31.7175 26.6223 29.1651 19.6573 26.4893 12.3473C23.5567 20.5257 20.7425 28.3743 17.8679 36.3941H28.1557C28.1884 36.5049 28.2186 36.6156 28.2513 36.7264Z" fill="white"/>
<path d="M49.3102 28.7487C49.3102 28.2906 49.3102 27.8778 49.3102 27.4649C49.3102 20.9655 49.3026 14.4686 49.3203 7.96922C49.3203 7.09324 49.4008 6.2097 49.5166 5.34127C49.9445 2.15952 51.7569 0.357208 55.0469 0.25652C60.1568 0.100453 65.2743 0.100453 70.3867 0.140729C74.5753 0.173452 78.7766 0.173452 82.945 0.523343C91.4758 1.24075 97.273 7.83581 97.2276 16.4018C97.21 19.8001 96.4926 22.9516 94.4688 25.7482C93.9502 26.4656 93.399 26.7098 92.4777 26.6343C83.2672 25.9018 74.0467 25.8137 64.8489 26.7123C59.9378 27.1906 55.062 28.0263 50.1686 28.6959C49.9269 28.7286 49.6802 28.7235 49.3102 28.7437V28.7487ZM61.2921 8.82255V25.2221C65.6217 25.2221 69.8531 25.3329 74.0744 25.1743C76.1813 25.0963 78.3184 24.6935 80.3548 24.1297C82.4441 23.5532 84.0375 22.1813 84.8002 20.0317C86.59 14.9796 83.6322 9.85209 78.3033 9.41661C72.7202 8.95848 67.0993 9.00379 61.2921 8.82255Z" fill="white"/>
<path d="M0.251953 59.6675C3.28518 57.2434 6.28317 54.7765 9.35415 52.4053C15.7277 47.4867 22.4033 43.0237 29.4137 39.0415C38.5361 33.8611 48.4035 31.2181 58.7265 29.9519C68.6166 28.7361 78.5369 28.4063 88.4798 28.9702C95.6438 29.3755 102.752 30.1986 109.723 31.9934C110.077 32.084 110.42 32.2275 110.981 32.4188C107.852 32.1016 104.96 31.7693 102.058 31.5201C94.9365 30.9084 87.8128 31.0393 80.6967 31.5705C73.2936 32.1243 65.961 33.1714 58.729 34.8907C50.0497 36.9548 42.6341 41.4077 35.8301 46.9858C32.5829 49.649 29.6277 52.5992 27.3345 56.1837C25.7814 58.6077 23.3145 59.8588 20.5305 59.9192C13.8272 60.0652 7.11888 59.967 0.413054 59.967L0.25447 59.6675H0.251953Z" fill="white"/>
<path d="M71.8125 35.0171C76.0489 34.6546 79.9179 34.2543 83.7969 34.0479C84.5319 34.0077 85.4431 34.5715 86.0397 35.1102C89.3977 38.1409 92.0558 41.7506 94.2307 45.6925C95.5598 48.104 96.7378 50.6111 97.8101 53.1485C99.5143 57.1785 96.2168 59.7561 93.1936 59.9751C90.3164 60.184 88.2649 58.8474 86.8125 56.524C84.4161 52.6928 82.0978 48.8113 79.7467 44.9499C77.9394 41.9822 76.2277 38.9464 73.6173 36.5677C73.129 36.1246 72.618 35.7068 71.8125 35.0145V35.0171Z" fill="white"/>
<path d="M49.0848 41.1865C50.5901 45.287 52.0929 49.1358 53.4144 53.0501C54.7712 57.0675 50.5524 61.017 46.3159 59.7584C44.939 59.3481 43.9246 58.4872 43.3657 57.2211C42.0341 54.203 40.7881 51.1471 39.5648 48.0837C39.4616 47.8219 39.6629 47.253 39.9071 47.0692C41.2387 46.0623 42.598 45.0831 44.0076 44.187C45.591 43.1801 47.2397 42.2714 49.0873 41.1865H49.0848Z" fill="white"/>
<path d="M51.293 39.9151C54.5955 38.8881 57.7773 37.8988 61.1 36.8643C61.1403 37.4583 61.1856 37.8158 61.1856 38.1707C61.1856 43.1598 61.1982 48.1489 61.1679 53.1354C61.1629 54.0064 61.0547 54.8975 60.8508 55.7458C60.1283 58.7387 57.6514 60.2843 54.2758 59.8614C54.3564 59.7028 54.4017 59.5493 54.4948 59.436C56.2393 57.2838 56.7905 54.832 55.907 52.2393C54.6232 48.4811 53.1406 44.7909 51.741 41.073C51.6378 40.7986 51.5321 40.5268 51.298 39.9151H51.293Z" fill="white"/>
</g>
<defs>
<clipPath id="clip0_2219_2879">
<rect width="110.981" height="60" fill="white"/>
</clipPath>
</defs>
</svg>
